<svg id="Layer_1" data-name="Layer 1" xmlns="http://www.w3.org/2000/svg" viewBox="0 0 1092.23 301.71"><title>logo</title><polyline points="98.25 158.93 99.43 160.31 100.36 161.38 99.53 163.9"/><polyline points="98.29 122.77 96.08 129.1 98.16 131.39"/><path d="M647.25,534.07h18.37L676.1,573h1.26l10.49-39h18.37a465.28,465.28,0,0,1,.67,61.66H695.48c-.59-6.54,0-13.51,0-20.47s0-14.09-.59-21.31c-4.95,13.59-7.55,27.93-11.83,41.94h-12.5l-10.9-42.53h-1.43v41.94H647.67a424.42,424.42,0,0,1-.42-61.15" transform="translate(-93.88 -414.91)"/><path d="M953.67,533.9h35.15a15.18,15.18,0,0,1,9.9,25.17,17.67,17.67,0,0,1-4.53,2.26l3.94,2.68A16.78,16.78,0,0,1,991,595.14c-12.25.75-24.5.84-36.49,1.17a402,402,0,0,1-.84-62.41m12.58,51.25H986a7,7,0,0,0,6.63-7.28v0a7.46,7.46,0,0,0-6.45-8.36l-.26,0c-6.46-.5-12.92,0-19.63,0Zm0-26.84h11.33a33.53,33.53,0,0,0,8.39-.84,6.54,6.54,0,0,0,4.78-7.21,6.21,6.21,0,0,0-5.87-5.62,61.48,61.48,0,0,0-18.2,0Z" transform="translate(-93.88 -414.91)"/><path d="M454.57,596.14H442.74v-62h41.94v10.32H455.24v14.26h25.59V569c-8.39.92-16.78,0-25.17.67-1.43,8.73-.25,17.37-1.09,26.42" transform="translate(-93.88 -414.91)"/><path d="M758.14,596.23c-4.95,0-10,2.26-13.09-3.69a23.15,23.15,0,0,1-16.78,4.53,13.59,13.59,0,0,1-12.16-11.91,12.92,12.92,0,0,1,9.65-13.92c3.86-1.26,8-1.93,11.91-2.94l6.46-1.85c.59-3.61-.5-5.87-3.61-6.71a9.48,9.48,0,0,0-12.33,4.78l-10.48-1.68a14.26,14.26,0,0,1,12.83-12.42,55.07,55.07,0,0,1,12.92,0c9.39.84,13.17,5,13.42,14.6v20.47c0,3.61.67,6.46,1.26,10.74m-14-21.48c-4.28,1.09-7.8,1.93-11.32,2.94a5.2,5.2,0,0,0-4.28,5.45,6.29,6.29,0,0,0,6.12,5.37,12,12,0,0,0,5.2-1.34c4.95-2.52,5.12-7,4.28-12.42" transform="translate(-93.88 -414.91)"/><path d="M504.06,564l-6.63-.84a15,15,0,0,1-2.52-.84,12,12,0,0,1,10.65-12.08,65,65,0,0,1,16.78,0,11.07,11.07,0,0,1,10,11.24v8.89c0,8.39.51,16.78.76,25.17-3.86,0-9.06,2.68-12.25-3.61a22.23,22.23,0,0,1-17.53,4.44,12.92,12.92,0,0,1-11.16-12,12.33,12.33,0,0,1,9.06-13.5c3.61-1.26,7.47-1.84,11.24-2.77l7.3-1.93c.75-3.27,0-5.62-2.94-6.88-4.36-1.34-8,0-12.75,4.7m15.69,10.65c-3.27.84-6.63,1.43-9.81,2.43s-5.37,3.36-4.78,6.29a6.54,6.54,0,0,0,7.89,4.78c6-.75,8.47-5.45,6.46-13.17Z" transform="translate(-93.88 -414.91)"/><path d="M1078.24,564.43l-7.21-1.09a12.86,12.86,0,0,1-2.6-1.17,13.25,13.25,0,0,1,11.16-11.58,59.21,59.21,0,0,1,16.78,0,11.24,11.24,0,0,1,10.15,11.83V572c0,7.89.67,15.77,1,24.07-3.94,0-9,2.52-12.42-3.36A22.39,22.39,0,0,1,1077.9,597a12.58,12.58,0,0,1-11.16-11.83,12.16,12.16,0,0,1,8.89-13.67c4.7-1.59,9.73-2.35,14.6-3.52,1.34,0,2.52-.92,3.94-1.43a4.86,4.86,0,0,0-2.3-6.49,5.13,5.13,0,0,0-.56-.22c-4.36-1.93-8.47-.5-13.09,4.61M1094,574.92a91.14,91.14,0,0,0-11.49,3.19,5.79,5.79,0,0,0-3,4.53,7.31,7.31,0,0,0,3.36,5.12,9.08,9.08,0,0,0,6.38,0c4.86-1.85,6-5.12,4.78-12.84" transform="translate(-93.88 -414.91)"/><path d="M918.78,577.44H889.92c.59,6.54,2.26,8.89,6.79,10.32s7.88-1.85,10.4-6l11.07,1.85a15.1,15.1,0,0,1-11.91,12.67c-14.43,3.69-28.44-1.85-29.36-20.64a40.27,40.27,0,0,1,.59-8.81,19.88,19.88,0,0,1,20-16.77,19.38,19.38,0,0,1,21,16.77,59.84,59.84,0,0,1,1,6.71,27.93,27.93,0,0,1-.67,3.86M906.7,569c-1.17-7.38-4-10.32-9.06-9.9s-7.55,3.69-7.47,9.9Z" transform="translate(-93.88 -414.91)"/><path d="M1013.73,573.41a23.4,23.4,0,1,1,46.81-.07v.07a22.73,22.73,0,0,1-21.26,24.12q-.95.06-1.9,0a22.06,22.06,0,0,1-23.66-24.16m34.39,0c0-8.39-4.62-13.67-11.16-13.59s-10.9,5.79-10.9,13.84,4.53,13.59,11.15,13.59,10.91-5.7,10.91-13.84" transform="translate(-93.88 -414.91)"/><path d="M540,583.31l11.83-1.85a10.65,10.65,0,0,0,13.34,6.71c2.18-.42,4.7-1.17,4.87-4s-2.18-3.52-4.45-4.11c-4.61-1.26-9.23-2.35-13.76-3.86a12.33,12.33,0,0,1-10-13.5,13.17,13.17,0,0,1,12.5-12.33,59.29,59.29,0,0,1,14.26,0,13.68,13.68,0,0,1,12.16,11.24L570.66,564a11.91,11.91,0,0,0-11.58-5.45c-2.43.42-5,.67-6.12,4.7,2.52,1.09,5,2.35,7.63,3.19,4.53,1.43,9.23,2.52,13.67,4a12.67,12.67,0,0,1,4.45,21.14,26.42,26.42,0,0,1-36.82-3.69,37.83,37.83,0,0,1-1.85-4.61" transform="translate(-93.88 -414.91)"/><path d="M1184.27,561.83l-10.74,2.1a10.23,10.23,0,0,0-12.83-5c-1.43,0-2.52,2.1-3.78,3.19,1.09,1,1.93,2.52,3.19,3,2.93,1.09,6.12,1.76,9.14,2.6l8.39,2.6a12.67,12.67,0,0,1,3.44,22.06,19.16,19.16,0,0,1-6.46,3.61,32.7,32.7,0,0,1-18.87,0,16.78,16.78,0,0,1-12.16-12.67l11.41-2.1a10.66,10.66,0,0,0,12.16,7,8.39,8.39,0,0,0,3.86-1.17,6.11,6.11,0,0,0,2.35-3.69c0-.92-1.34-2.35-2.43-2.85a45.18,45.18,0,0,0-5.87-1.68c-4.11-1.26-8.39-2.26-12.33-3.86a11.4,11.4,0,0,1-7.63-11.07,11.91,11.91,0,0,1,6.88-11.66,30.36,30.36,0,0,1,25.17,0c3.52,1.26,4.87,3.36,7.13,9.56" transform="translate(-93.88 -414.91)"/><path d="M838.83,596.14H827.18v-45h9.9l1.34,4.45c1.85-1.26,3.19-2.43,4.7-3.36a18.87,18.87,0,0,1,16.78-1.51,10.4,10.4,0,0,1,7.89,9.4v35.73H856.37c0-2-.5-4.19-.5-6.37,0-7.47,0-15-.59-22.48,0-4.87-2.26-7.21-6-7.8a8.39,8.39,0,0,0-9.65,5.87,28.79,28.79,0,0,0-1.09,8.39c.08,7.3.25,14.6.25,22.65" transform="translate(-93.88 -414.91)"/><path d="M1139.3,586.83l1.26,8.39a17.79,17.79,0,0,1-16.78.5,9.48,9.48,0,0,1-4.7-9.23V562l-5.2-2.1v-8.39l5-1.51c-2-9.48,5-11.49,12.33-14.68v14.93l7.63.92V560l-7.55,1.17v22.73c0,1.09,2.18,2.52,3.61,3.1s2.85-.08,4.36-.17" transform="translate(-93.88 -414.91)"/><path d="M593.14,549.75c.92-9.48.92-9.48,12.25-14.09v14.26L613,551.1v8.39l-6.54,1.18a57.28,57.28,0,0,0,.67,25.83h6.71l.67,9.14a66.9,66.9,0,0,1-9.82,1.93c-7.13,0-10.23-3.27-10.74-10.48V561.92l-4.7-1.93c-1.76-8.05-1.76-8.05,3.86-10.23" transform="translate(-93.88 -414.91)"/><path d="M779.87,554.79c6.71-6,10.07-6.37,16.78-2.35a14.58,14.58,0,0,1-1.17,4.45c-.5,1.43-1.34,3.27-2.1,5-1.76,0-3.27-.75-4.78-.92a6,6,0,0,0-7.18,4.62l0,.16A47.87,47.87,0,0,0,780,575.84V596H768.79a234.83,234.83,0,0,1-.59-44.88H778Z" transform="translate(-93.88 -414.91)"/><path d="M814.43,551.1V596H803.35a254.48,254.48,0,0,1,0-44.88Z" transform="translate(-93.88 -414.91)"/><rect x="708.63" y="119.41" width="11.49" height="10.07"/><path d="M247.74,716.62c-10.71-8-21.46-15.63-31.87-23.8A409.71,409.71,0,0,1,152,631.93a258.45,258.45,0,0,1-49.43-89.11,198.39,198.39,0,0,1-8.73-56.53V428.44a808.26,808.26,0,0,1,153.76-13.5,868,868,0,0,1,153.76,13.7c0,2.13.41,4.31.41,6.44v63.68a176.68,176.68,0,0,1-8.12,47.5,226.74,226.74,0,0,1-41.46,77.44,393,393,0,0,1-101.49,90.94Zm.81-16.54c1.17-.81,2.18-1.47,3.15-2.23,8.22-6.29,16.34-12.69,24.61-18.83A364.93,364.93,0,0,0,348,607.42a190.19,190.19,0,0,0,39.38-108.54c.91-16.9.56-33.85.71-50.75,0-2.74-.3-5.43-.46-8.48l-5.07-1.22a413,413,0,0,0-58.15-7.26c-26.08-1.83-52.27-2.13-78.4-2.49-3.55,0-7.15.41-10.71,0a364.52,364.52,0,0,0-45.42.71c-21.72,1.37-43.34,4-64.85,7.26-5.43.81-10.81,1.83-16.34,2.79v4c0,3.3,0,6.6.25,10.15.36,16.64.46,33.34,1,50a128.87,128.87,0,0,0,6.85,37.25A325.6,325.6,0,0,0,135.24,583,229.66,229.66,0,0,0,176.5,640.5,480.16,480.16,0,0,0,244,697.13c1.47,1,2.89,2,4.57,2.94" transform="translate(-93.88 -414.91)"/><path d="M199.79,487.45H224.3a6.29,6.29,0,0,1,6.09,3.25,82.62,82.62,0,0,1,9.74,18.17c.3.86.76,1.72,1.27,2.89,1.37-3.25,2.54-6.19,3.86-9.08a57.31,57.31,0,0,1,2.69-5.07c5.84-10.15,5.84-10.15,17.41-10.15h17c1,3.4,1.42,86.67.56,97.58a81.22,81.22,0,0,1-20.91,0V512.83a24.09,24.09,0,0,0-2.44,2.39A44.35,44.35,0,0,0,252,541.35v43.94a91.3,91.3,0,0,1-21.67.3V540.69a53.59,53.59,0,0,0-4-20.3,16.49,16.49,0,0,0-5.63-7.61,71.36,71.36,0,0,0-.41,12.08v61H199.79Z" transform="translate(-93.88 -414.91)"/><path d="M292.2,585.49v-98h49.37a10.15,10.15,0,0,1,8.07,3.35c3.2,3.4,6.65,6.6,10.15,9.84a6.19,6.19,0,0,1,2.23,5.07v21.06a4,4,0,0,1-2.44,4.26c-2.23,1.07-4.36,2.39-7.05,3.86,2.34,1.88,4.31,3.65,6.5,5.07a4.57,4.57,0,0,1,2,4.16v29.74a3.91,3.91,0,0,1-2.44,4.26,10.83,10.83,0,0,0-2.49,1.47,37.76,37.76,0,0,1-25.78,6.5c-11-.3-22-.41-33-.61Zm51.1-19v-20.3a232.81,232.81,0,0,0-35.52,0v20.3Zm-35.83-39.94H343V507.19H307.47Z" transform="translate(-93.88 -414.91)"/><path d="M173.91,585.14V546H161.68a10.16,10.16,0,0,1-7.16-2.39c-7-5.38-14.11-10.51-21.06-16.39h40.34V507.4c-3.4,0-6.8-.3-10.15-.3H141.74a8.63,8.63,0,0,1-6-2.13c-6.9-5.68-14-11.22-21-16.8,2.69-1.07,65.71-1.52,76.47-.56,0,1.12.25,2.28.25,3.45q0,27.91.25,55.82c0,11.16,0,22.33.3,33.49v4.82Z" transform="translate(-93.88 -414.91)"/></svg>